<svg xmlns="http://www.w3.org/2000/svg" viewBox="0 0 260.45 88.46"><defs><clipPath id="clip-path"><path d="m182.75 15.87 13.96 12.11-4.38 48.96 2.53 10.1 10.6-6.57-1.52-12.45 49.81-27.25 4.71-8.02-7.58-4.1-23.38-1.85-30.88-19.18-13.88-1.85v10.1h.01z" style="fill:none"/></clipPath><style>.cls-4{fill:none;stroke:#2a698b;stroke-miterlimit:3.01;stroke-width:5.05px}</style></defs><g id="Layer_2" data-name="Layer 2"><g id="Layer_1-2" data-name="Layer 1"><path d="M94.7 52.93v1.45a17 17 0 0 1-.3 3.21 9.18 9.18 0 0 1-1 2.8 5.61 5.61 0 0 1-1.79 2 5.44 5.44 0 0 1-5.51 0 5.61 5.61 0 0 1-1.79-2 9.18 9.18 0 0 1-1-2.8 17 17 0 0 1-.3-3.21V39.83a21.45 21.45 0 0 1 .3-3.82 7.69 7.69 0 0 1 1-2.73 4.34 4.34 0 0 1 1.79-1.64 7.3 7.3 0 0 1 5.51 0 4.34 4.34 0 0 1 1.79 1.64 7.69 7.69 0 0 1 1 2.73 21.45 21.45 0 0 1 .3 3.82h5.82a21.41 21.41 0 0 0-.66-5.49 11.71 11.71 0 0 0-2.06-4.27 9.42 9.42 0 0 0-3.61-2.76 13 13 0 0 0-5.32-1 12.14 12.14 0 0 0-5.5 1.12 9.3 9.3 0 0 0-3.59 3.09 13.14 13.14 0 0 0-2 4.73 29 29 0 0 0-.59 6v11.66a28.92 28.92 0 0 0 .59 6 13.19 13.19 0 0 0 2 4.74 9.26 9.26 0 0 0 3.59 3.11 12.28 12.28 0 0 0 5.5 1.11 12.44 12.44 0 0 0 5.51-1.09A9.71 9.71 0 0 0 98 63.87a11.85 11.85 0 0 0 2-4.3 22.37 22.37 0 0 0 .59-5.19v-1.45Zm32.75 14.55-6.57-20.37a6.58 6.58 0 0 0 2.56-1.73 7.94 7.94 0 0 0 .94-1.22 10.27 10.27 0 0 0 .82-1.66 12.35 12.35 0 0 0 .58-2.15 15.81 15.81 0 0 0 .22-2.71 15.33 15.33 0 0 0-.62-4.47 7.81 7.81 0 0 0-2.11-3.44 10 10 0 0 0-4-2.22 21.83 21.83 0 0 0-6.34-.78h-7.28v40.75h5.82V48.56h4.37l6.1 18.92Zm-16-36.39h1.45a13.05 13.05 0 0 1 3 .31 5.73 5.73 0 0 1 2.3 1.06 4.83 4.83 0 0 1 1.47 2 8.29 8.29 0 0 1 .53 3.17 8.35 8.35 0 0 1-.53 3.18 4.83 4.83 0 0 1-1.47 2 5.87 5.87 0 0 1-2.3 1.06 13.67 13.67 0 0 1-3 .3h-1.45V31.09Zm36.39 36.39 5.82-32.15v32.15h5.82V26.73h-8.17L145.51 58l-5.79-31.24h-7.89v40.72h5.82V35.33l5.82 32.15Z" style="fill:#373535"/><path d="M17.47 52.93v1.45a17 17 0 0 1-.3 3.21 9.18 9.18 0 0 1-1 2.8 5.61 5.61 0 0 1-1.79 2 4.84 4.84 0 0 1-2.76.75 4.83 4.83 0 0 1-2.75-.75 5.61 5.61 0 0 1-1.79-2 9.18 9.18 0 0 1-1-2.8 17 17 0 0 1-.3-3.21V39.83A21.45 21.45 0 0 1 6.12 36a7.69 7.69 0 0 1 1-2.73 4.34 4.34 0 0 1 1.79-1.64 6.3 6.3 0 0 1 2.75-.54 6.32 6.32 0 0 1 2.76.54 4.34 4.34 0 0 1 1.79 1.64 7.69 7.69 0 0 1 1 2.73 21.45 21.45 0 0 1 .3 3.82h5.82a21.41 21.41 0 0 0-.66-5.49 11.71 11.71 0 0 0-2.06-4.27A9.42 9.42 0 0 0 17 27.31a13 13 0 0 0-5.32-1 12.14 12.14 0 0 0-5.5 1.12 9.3 9.3 0 0 0-3.59 3.09 13.14 13.14 0 0 0-2 4.73 29 29 0 0 0-.59 6v11.66a28.92 28.92 0 0 0 .59 6 13.19 13.19 0 0 0 2 4.74 9.26 9.26 0 0 0 3.59 3.11 12.28 12.28 0 0 0 5.5 1.11 12.44 12.44 0 0 0 5.51-1.09 9.71 9.71 0 0 0 3.59-2.93 11.85 11.85 0 0 0 2-4.3 22.37 22.37 0 0 0 .59-5.19v-1.43Zm10.92 14.55h5.82V26.73h-5.82ZM50 58.75l-1.3-10.19-4.31-21.83h-5.81l8.36 40.76h6.19l8.73-40.76H56l-4.61 21.75Zm16.21 8.73h5.82V26.73h-5.8Z" style="fill:#2a698b"/><path d="M185.15 10.26s-9.88-2.1-6.74 7.49L199 81s3.13 9.6 9.88 2.08l44.32-49.39s6.74-7.52-3.13-9.62l-64.91-13.81Z" class="cls-4"/><path d="M195.57 3.65S186.66-1.11 187 9l2.38 66.63s.36 10.08 8.89 4.7L254.24 45s8.53-5.39-.37-10.16l-58.3-31.2Z" style="stroke:#86c661;stroke-miterlimit:3.01;stroke-width:5.05px;fill:none"/><path d="M185.15 10.26s-9.88-2.1-6.74 7.49L199 81s3.13 9.6 9.88 2.08l44.32-49.39s6.74-7.52-3.13-9.62l-64.91-13.81Z" class="cls-4" style="clip-path:url(#clip-path)"/></g></g></svg>
