<svg
  class="crm-logo"
  aria-label="[title + description]"
  role="img"
  version="1.1"
  viewBox="0 0 229.76 59.783"
  xml:space="preserve"
  xmlns="http://www.w3.org/2000/svg"
  >
  <title>{ts}CiviCRM Logo{/ts}</title>
  <description>{ts}The word CiviCRM with an intersecting blue and green triangle{/ts}</description>
  <style type="text/css">
    .crm-logo-text {
      fill: var(--crm-c-logo-text, #086287);
    }
     @media (prefers-color-scheme: dark) {
       .crm-logo-text {
         fill: var(--crm-c-logo-text, #f0f0f0);
       }
     }

    .crm-logo-triangle-1 {
      fill: var(--crm-c-logo-triangle-1, #086287);
    }
    .crm-logo-triangle-2 {
      fill: var(--crm-c-logo-triangle-2, #81C459);
    }
  </style>
  <g transform="translate(-24.79 -44.477)">
    <g>
      <g>
        <path class="crm-logo-triangle-1" d="m216.26 104.26c-3.77-0.07-5.2-4.43-5.35-4.92l-12.85-42.11c-0.76-2.47-0.58-4.46 0.51-5.92 0.71-0.94 2.12-2.04 4.83-1.99 0.99 0.02 1.77 0.19 1.85 0.21l42.78 9.97c2.75 0.64 4.44 1.94 5.02 3.85 0.93 3.04-1.65 5.92-1.95 6.24l-29.94 32.12c-1.59 1.72-3.25 2.58-4.9 2.55zm-13.07-50.53c-0.77-0.01-1.02 0.19-1.06 0.26-0.22 0.31-0.26 0.44 0.19 1.93l12.85 42.11c0.29 0.9 0.76 1.74 1.18 1.77 0.01 0 0.52 0 1.57-1.13l29.94-32.12c0.55-0.61 1.06-1.6 0.95-1.9-0.08-0.22-0.43-0.5-1.77-0.81l-42.78-9.97c-0.02 0-0.56-0.13-1.07-0.14z"/>
      </g>
      <g>
        <path class="crm-logo-triangle-2" d="m211.45 100.83c-1.38 0.51-2.83 0.61-3.96 0.24-3.57-1.17-3.68-5.74-3.68-6.26v-41l4.21 0.94 0.02 40.15c0.01 0.94 0.25 1.84 0.83 1.94 0 0 0.3 0.09 1.15-0.3zm2.57-6.52 34.62-20.03c0.7-0.42 1.53-1.04 1.46-1.54-0.01-0.07-0.17-0.52-0.92-1.05l2.9-3.3c1.64 1.25 2.47 2.71 2.47 4.35 0 3.17-3.3 5.17-3.68 5.39l-35.51 20.4zm31.12-24.89-34.02-19.79s-0.85-0.54-1.34-0.7c-0.73-0.24-1.08 0-1.15 0.05-0.2 0.14-0.27 0.24-0.35 1.24l-4.38-0.82c0.24-1.82 0.95-3.17 2.12-4.03 0.95-0.69 2.62-1.33 5.19-0.5 0.94 0.31 1.63 0.7 1.71 0.74l35.39 20.42z"/>
      </g>
    </g>
    <g>
      <path class="crm-logo-text" d="m183.02 66.82c-0.48-0.28-0.86-0.67-1.15-1.15-0.28-0.48-0.42-1-0.42-1.57 0-0.56 0.14-1.09 0.42-1.57s0.66-0.86 1.15-1.15 1-0.42 1.57-0.42 1.09 0.14 1.57 0.42 0.86 0.66 1.15 1.15 0.42 1 0.42 1.57-0.14 1.09-0.42 1.57-0.66 0.86-1.15 1.15-1 0.42-1.57 0.42-1.09-0.14-1.57-0.42zm2.91-0.4c0.41-0.24 0.74-0.57 0.98-0.98s0.36-0.86 0.36-1.35c0-0.48-0.12-0.93-0.36-1.34s-0.57-0.73-0.98-0.98c-0.41-0.24-0.86-0.36-1.35-0.36-0.48 0-0.93 0.12-1.34 0.36s-0.73 0.57-0.98 0.98c-0.24 0.41-0.36 0.85-0.36 1.34s0.12 0.94 0.36 1.35 0.57 0.74 0.98 0.98 0.85 0.36 1.34 0.36c0.49 0.01 0.94-0.12 1.35-0.36zm-2.56-0.62c-0.06-0.05-0.08-0.12-0.08-0.21v-2.83c0-0.11 0.04-0.21 0.11-0.28s0.17-0.12 0.28-0.12h1.05c0.46 0 0.8 0.1 1.03 0.29s0.34 0.45 0.34 0.76c0 0.21-0.06 0.39-0.18 0.53s-0.28 0.25-0.46 0.32c0.16 0.06 0.3 0.18 0.42 0.35 0.12 0.18 0.18 0.42 0.18 0.74v0.24c0 0.08-0.03 0.15-0.09 0.21s-0.13 0.09-0.21 0.09-0.15-0.03-0.21-0.09-0.09-0.13-0.09-0.21v-0.16c0-0.25-0.04-0.46-0.11-0.63s-0.25-0.26-0.53-0.26h-0.95v1.06c0 0.08-0.03 0.15-0.09 0.21s-0.13 0.08-0.21 0.08c-0.08-0.01-0.15-0.03-0.2-0.09zm1.33-1.78c0.25 0 0.45-0.05 0.6-0.15s0.22-0.25 0.22-0.44c0-0.18-0.06-0.32-0.19-0.42s-0.34-0.14-0.65-0.14h-0.81v1.15z"/>
    </g>
    <g>
      <path class="crm-logo-text" d="m31.72 88.55c-2.15-1.18-3.85-2.87-5.08-5.08s-1.85-4.79-1.85-7.74 0.62-5.53 1.85-7.74 2.93-3.9 5.08-5.08 4.58-1.77 7.29-1.77c1.84 0 3.49 0.22 4.94 0.65s2.89 1.06 4.33 1.87c0.6 0.32 0.89 0.84 0.89 1.54 0 0.41-0.15 0.77-0.45 1.08s-0.69 0.47-1.18 0.47c-0.27 0-0.51-0.05-0.73-0.16-1.19-0.62-2.36-1.1-3.49-1.42-1.14-0.32-2.45-0.49-3.94-0.49-2.33 0-4.31 0.48-5.95 1.44s-2.87 2.28-3.7 3.94c-0.83 1.67-1.24 3.55-1.24 5.67s0.41 4 1.24 5.67 2.06 2.98 3.7 3.94 3.62 1.44 5.95 1.44c1.49 0 2.8-0.16 3.94-0.49 1.14-0.32 2.3-0.8 3.49-1.42 0.22-0.11 0.46-0.16 0.73-0.16 0.49 0 0.88 0.15 1.18 0.45s0.45 0.66 0.45 1.1c0 0.7-0.3 1.22-0.89 1.54-1.44 0.81-2.88 1.44-4.33 1.87s-3.09 0.65-4.94 0.65c-2.71 0-5.14-0.59-7.29-1.77z"/>
      <path class="crm-logo-text" d="m53.47 64.35c-0.41-0.41-0.61-0.89-0.61-1.46v-0.16c0-0.57 0.2-1.06 0.61-1.46 0.41-0.41 0.89-0.61 1.46-0.61h0.24c0.57 0 1.06 0.2 1.46 0.61s0.61 0.89 0.61 1.46v0.16c0 0.57-0.2 1.06-0.61 1.46-0.41 0.41-0.89 0.61-1.46 0.61h-0.24c-0.56 0-1.05-0.2-1.46-0.61zm0.25 25.23c-0.35-0.35-0.53-0.79-0.53-1.3v-17.42c0-0.51 0.18-0.96 0.53-1.32 0.35-0.37 0.79-0.55 1.3-0.55 0.54 0 0.99 0.18 1.34 0.53s0.53 0.8 0.53 1.34v17.43c0 0.51-0.18 0.95-0.55 1.3s-0.81 0.53-1.32 0.53c-0.52-0.01-0.95-0.18-1.3-0.54z"/>
      <path class="crm-logo-text" d="m68.5 89.69c-0.41-0.28-0.7-0.64-0.89-1.08l-7.07-16.9c-0.14-0.32-0.2-0.61-0.2-0.85 0-0.51 0.18-0.96 0.53-1.32 0.35-0.37 0.79-0.55 1.3-0.55 0.35 0 0.68 0.1 1 0.3 0.31 0.2 0.53 0.45 0.67 0.75l6.22 15.76 6.22-15.76c0.14-0.3 0.36-0.55 0.67-0.75s0.64-0.3 1-0.3c0.51 0 0.95 0.18 1.3 0.55s0.53 0.81 0.53 1.32c0 0.24-0.07 0.53-0.2 0.85l-7.07 16.9c-0.19 0.43-0.49 0.79-0.89 1.08s-0.85 0.43-1.34 0.43h-0.41c-0.51-0.01-0.96-0.15-1.37-0.43z"/>
      <path class="crm-logo-text" d="m83.5 64.35c-0.41-0.41-0.61-0.89-0.61-1.46v-0.16c0-0.57 0.2-1.06 0.61-1.46 0.41-0.41 0.89-0.61 1.46-0.61h0.24c0.57 0 1.06 0.2 1.46 0.61s0.61 0.89 0.61 1.46v0.16c0 0.57-0.2 1.06-0.61 1.46-0.41 0.41-0.89 0.61-1.46 0.61h-0.24c-0.57 0-1.06-0.2-1.46-0.61zm0.24 25.23c-0.35-0.35-0.53-0.79-0.53-1.3v-17.42c0-0.51 0.18-0.96 0.53-1.32 0.35-0.37 0.79-0.55 1.3-0.55 0.54 0 0.99 0.18 1.34 0.53s0.53 0.8 0.53 1.34v17.43c0 0.51-0.18 0.95-0.55 1.3s-0.81 0.53-1.32 0.53c-0.51-0.01-0.95-0.18-1.3-0.54z"/>
      <path class="crm-logo-text" d="m97.65 88.55c-2.15-1.18-3.85-2.87-5.08-5.08s-1.85-4.79-1.85-7.74 0.62-5.53 1.85-7.74 2.93-3.9 5.08-5.08 4.58-1.77 7.29-1.77c1.84 0 3.49 0.22 4.94 0.65s2.89 1.06 4.33 1.87c0.6 0.32 0.89 0.84 0.89 1.54 0 0.41-0.15 0.77-0.45 1.08s-0.69 0.47-1.18 0.47c-0.27 0-0.51-0.05-0.73-0.16-1.19-0.62-2.36-1.1-3.49-1.42-1.14-0.32-2.45-0.49-3.94-0.49-2.33 0-4.31 0.48-5.95 1.44s-2.87 2.28-3.7 3.94c-0.83 1.67-1.24 3.55-1.24 5.67s0.41 4 1.24 5.67 2.06 2.98 3.7 3.94 3.62 1.44 5.95 1.44c1.49 0 2.8-0.16 3.94-0.49 1.14-0.32 2.3-0.8 3.49-1.42 0.22-0.11 0.46-0.16 0.73-0.16 0.49 0 0.88 0.15 1.18 0.45s0.45 0.66 0.45 1.1c0 0.7-0.3 1.22-0.89 1.54-1.44 0.81-2.88 1.44-4.33 1.87s-3.09 0.65-4.94 0.65c-2.7 0-5.13-0.59-7.29-1.77z"/>
      <path class="crm-logo-text" d="m119.9 89.58c-0.35-0.35-0.53-0.79-0.53-1.3v-24.86c0-0.51 0.18-0.96 0.53-1.32s0.79-0.55 1.3-0.55h9.47c3.68 0 6.45 0.76 8.29 2.28s2.76 3.51 2.76 5.97c0 1.62-0.45 3.11-1.36 4.45s-2.23 2.31-3.96 2.9c1.95 0.51 3.28 1.73 4 3.64s1.08 3.79 1.08 5.63v1.87c0 0.51-0.18 0.95-0.53 1.3s-0.79 0.53-1.3 0.53c-0.57 0-1.02-0.17-1.36-0.51s-0.51-0.78-0.51-1.32v-1.22c0-1.35-0.12-2.61-0.37-3.76s-0.83-2.18-1.75-3.09-2.32-1.36-4.18-1.36h-8.41v9.43c0 0.51-0.18 0.95-0.55 1.3s-0.81 0.53-1.32 0.53c-0.52-0.01-0.95-0.18-1.3-0.54zm10.52-14.21c2.33 0 4.18-0.46 5.55-1.38s2.05-2.22 2.05-3.9c0-1.62-0.59-2.87-1.77-3.74s-3.19-1.3-6.03-1.3h-7.15v10.32z"/>
      <path class="crm-logo-text" d="m146.71 89.58c-0.35-0.35-0.53-0.79-0.53-1.3v-24.25c0-0.73 0.26-1.36 0.77-1.89s1.14-0.79 1.87-0.79h1.34c0.54 0 1.04 0.16 1.48 0.49 0.45 0.33 0.78 0.73 1 1.22l9.22 22.99 9.22-22.99c0.22-0.49 0.55-0.89 1-1.22 0.45-0.32 0.94-0.49 1.48-0.49h1.34c0.73 0 1.35 0.26 1.87 0.79 0.51 0.53 0.77 1.16 0.77 1.89v24.25c0 0.51-0.18 0.95-0.53 1.3s-0.79 0.53-1.3 0.53c-0.52 0-0.96-0.18-1.32-0.53-0.37-0.35-0.55-0.79-0.55-1.3v-23.07l-9.38 23.2c-0.22 0.51-0.56 0.93-1.04 1.24-0.47 0.31-1 0.47-1.56 0.47s-1.09-0.16-1.56-0.47-0.82-0.72-1.04-1.24l-9.38-23.2v23.08c0 0.51-0.18 0.95-0.55 1.3s-0.81 0.53-1.32 0.53c-0.51-0.01-0.95-0.18-1.3-0.54z"/>
    </g>
  </g>
</svg>
